<svg width="170" height="34" viewBox="0 0 170 34" fill="none" xmlns="http://www.w3.org/2000/svg">
<g clip-path="url(#clip0_13_18179)">
<path d="M132.609 0.140423C131.634 0.569447 130.867 1.49524 130.867 2.24039C130.879 3.0307 131.553 3.87746 132.435 4.21616C132.633 4.29519 133.515 4.3968 134.409 4.44196C136.244 4.53228 136.824 4.71292 137.44 5.35646C137.788 5.72904 138.02 6.13548 137.881 6.13548C137.835 6.13548 137.254 6.02258 136.581 5.89839C134.839 5.55968 132.853 5.62743 131.448 6.07903C130.391 6.40644 129.335 7.00482 129.137 7.36611C128.824 7.93061 129.137 8.68705 129.788 8.93543C129.962 9.00318 130.554 9.17253 131.1 9.3193C131.936 9.53381 132.389 9.56768 134.119 9.56768C136.023 9.56768 136.209 9.5451 137.115 9.25156C137.777 9.03705 138.23 8.81124 138.543 8.52899L139.019 8.12255L139.402 8.32577C140.029 8.65318 141.074 9.62413 141.318 10.0983C141.551 10.5161 141.632 11.4531 141.481 11.8257C141.388 12.0515 141.121 12.0515 140.61 11.8483C140.157 11.6676 137.591 11.2612 136.035 11.1144C134.572 10.9677 132.423 11.058 130.484 11.3289C128.533 11.6112 128.197 11.6902 126.989 12.1531C125.514 12.7176 124.852 13.4966 125.178 14.2757C125.468 14.9531 126.583 15.4611 128.777 15.924C130.055 16.1837 135.094 16.2176 136.383 15.9692C138.38 15.5853 140.355 14.874 141.283 14.1966C141.76 13.8466 141.876 13.8579 142.34 14.2757C143.141 15.0095 143.118 14.7724 143.153 20.6094C143.176 24.8884 143.153 26.0739 143.014 26.8529C142.619 29.0206 141.295 30.8383 139.437 31.7302C138.659 32.1141 138.195 32.2496 137.033 32.4302C136.244 32.5657 135.326 32.6673 135.001 32.6673C134.258 32.6673 131.901 32.2834 131.227 32.0576C129.66 31.5157 128.115 30.0706 127.512 28.6028C126.768 26.7626 126.768 26.8077 126.722 21.7949L126.664 17.1998H125.909H125.166L125.212 22.032C125.259 27.519 125.294 27.7109 126.188 29.4496C127.709 32.3963 130.368 33.8528 134.467 33.9882C137.486 34.0898 139.646 33.5366 141.492 32.1931C142.967 31.1093 143.861 29.7431 144.419 27.7561C144.721 26.6609 144.732 26.5255 144.802 22.6304L144.86 18.6337L145.383 18.5998C146.416 18.5433 147.264 18.9498 147.67 19.7288C147.891 20.1465 147.914 21.1514 147.717 21.7384C147.531 22.2804 146.892 22.8223 146.323 22.9126C145.917 22.9804 145.87 23.0255 145.801 23.3981C145.661 24.2223 145.696 24.3126 146.114 24.3126C146.741 24.3126 147.542 24.0303 148.065 23.6239C148.634 23.1949 149.005 22.4497 149.226 21.3659C149.342 20.7223 149.342 20.5191 149.168 19.8643C148.715 18.0804 147.519 17.1998 145.557 17.1998C145.081 17.1998 144.686 17.1885 144.674 17.1659C144.674 17.1547 144.651 16.8159 144.616 16.4095C144.5 14.7837 144.198 14.0499 143.316 13.2144L142.735 12.6612L142.909 12.1418C143.258 11.0467 142.874 9.53381 142.015 8.57415C141.551 8.0548 140.447 7.23063 139.902 6.97095C139.53 6.8016 139.484 6.72257 139.426 6.2258C139.263 4.92744 138.148 3.73068 136.708 3.32424C136.221 3.18876 135.338 3.07586 134.421 3.0307C132.969 2.95167 132.9 2.94037 132.586 2.63554C132.064 2.12749 132.18 1.35976 132.888 0.727509C133.178 0.456547 133.283 0.106552 133.109 0.00494003C133.051 -0.0176392 132.83 0.0388107 132.609 0.140423ZM135.605 7.15159C137.382 7.3774 137.753 7.61449 136.836 7.93061C136.035 8.21287 130.984 8.13383 130.984 7.84029C130.984 7.64836 132.284 7.23063 133.248 7.11772C133.921 7.03869 134.769 7.04998 135.605 7.15159ZM137.022 12.6273C137.881 12.7063 138.891 12.8644 139.263 12.9547C139.635 13.0563 139.96 13.1354 139.983 13.1354C140.018 13.1354 140.041 13.1805 140.041 13.2483C140.041 13.6208 137.242 14.4563 135.083 14.7273C133.469 14.9192 130.589 14.795 128.835 14.445C127.314 14.1515 126.803 13.9934 126.803 13.8241C126.803 13.6886 127.86 13.3047 129.184 12.966C131.065 12.4805 134.258 12.3451 137.022 12.6273Z" fill="#F8D648"/>
<path d="M165.762 16.0031C160.943 19.582 158.365 21.4901 157.993 21.7723C157.738 21.9642 157.25 22.3255 156.89 22.5965L156.24 23.0707L156.182 19.3224L156.124 15.5627L154.962 15.5289C154.324 15.5063 153.523 15.5289 153.197 15.5627L152.582 15.6305V16.3643V17.0869H153.511H154.44L154.463 25.4642L154.498 33.8528H155.311H156.124L156.158 29.4496L156.182 25.0464L156.902 24.5384C157.296 24.2674 157.668 23.9852 157.738 23.9174C158.04 23.6465 159.201 22.8449 159.294 22.8449C159.352 22.8449 159.7 23.2174 160.06 23.6578C160.432 24.1094 160.954 24.7642 161.245 25.1029C161.721 25.69 163.857 28.298 164.891 29.5625C165.135 29.8673 165.913 30.8157 166.598 31.6512C167.294 32.4866 167.98 33.3447 168.119 33.5366C168.386 33.8979 168.421 33.9092 169.199 33.9092C169.988 33.9092 170 33.9092 170 33.6157C170 33.4463 169.861 33.1528 169.686 32.9495C169.501 32.7463 169.048 32.1931 168.665 31.7189C167.016 29.6641 166.377 28.8738 166.18 28.6593C166.075 28.5351 165.762 28.1512 165.495 27.8125C165.227 27.4738 164.798 26.9319 164.542 26.6271C163.915 25.8593 163.137 24.911 162.859 24.5497C162.742 24.3916 162.22 23.7594 161.721 23.1497C161.221 22.5287 160.78 21.9642 160.757 21.8852C160.722 21.7949 161.21 21.3546 162.011 20.7675C162.731 20.2256 163.555 19.6159 163.846 19.4014C165.901 17.8659 166.876 17.1208 167.364 16.7482L167.91 16.3192L167.318 15.8563C166.992 15.5966 166.691 15.3934 166.644 15.3934C166.609 15.3934 166.214 15.6643 165.762 16.0031Z" fill="#F8D648"/>
<path d="M0.371585 15.5853L0 15.6305V16.3643V17.0869H0.987022H1.97404V25.4981V33.9205L2.76366 33.8866L3.54167 33.8528L3.5765 29.8222L3.59973 25.7803H8.68579C11.4727 25.7803 13.8764 25.7464 14.0273 25.7126C14.2596 25.6448 14.2828 25.5771 14.2828 24.9223V24.1997H8.94126H3.59973V20.6433V17.0869H8.97609C11.9255 17.0869 14.4105 17.0418 14.4918 16.9853C14.5963 16.9289 14.6311 16.6918 14.6079 16.2289L14.5731 15.5627L7.66394 15.5515C3.8668 15.5515 0.580601 15.5627 0.371585 15.5853Z" fill="#F8D648"/>
<path d="M22.5622 15.5853L22.179 15.6305V16.3643V17.0869H23.166H24.153V25.4981V33.9092H30.1216C33.3962 33.9092 36.2527 33.8753 36.4501 33.8415C36.8101 33.7737 36.8101 33.7624 36.8101 33.0512V32.3286H31.2944H25.7787V28.8851V25.4416L31.097 25.419L36.4037 25.3852L36.4385 24.6852L36.4734 23.9739L31.1551 23.9513L25.8368 23.9174L25.8019 20.4965L25.7787 17.0869H31.1435C34.1045 17.0869 36.5895 17.0417 36.6708 16.9853C36.7753 16.9288 36.8101 16.6918 36.7869 16.2289L36.7521 15.5627L29.8429 15.5515C26.0458 15.5515 22.7596 15.5627 22.5622 15.5853Z" fill="#F8D648"/>
<path d="M44.7411 15.5853C44.4741 15.6305 44.4624 15.6869 44.4508 16.4095C44.4392 17.1095 44.4044 17.0869 45.403 17.0869H46.332V25.5093V33.9318L50.6052 33.8753C55.0874 33.8189 55.5635 33.7737 57.4447 33.1641C58.4201 32.8479 60.1038 31.877 60.9283 31.1431C62.7165 29.5512 63.6223 27.6545 63.7268 25.2723C63.7849 23.6239 63.6339 22.5288 63.1578 21.411C61.7295 18.0804 58.6523 16.0595 54.3443 15.6192C53.2876 15.5176 45.2753 15.4837 44.7411 15.5853ZM54.7739 17.2111C56.1325 17.3917 57.7234 17.945 58.7336 18.5885C60.998 20.0223 62.1359 22.0771 62.1359 24.7077C62.1359 27.8803 60.4174 30.3077 57.317 31.5383C55.6564 32.1931 55.4126 32.227 51.5342 32.2947L47.9577 32.3512V24.719V17.0869H50.9071C52.5328 17.0869 54.2746 17.1434 54.7739 17.2111Z" fill="#F8D648"/>
<path d="M81.4699 15.6305C76.918 16.2063 73.597 18.8256 72.6796 22.5739C72.3661 23.8723 72.4126 26.0513 72.7958 27.3384C74.0383 31.4818 78.4624 34.0786 83.9549 33.8753C86.3354 33.785 87.9262 33.3899 89.61 32.4754L90.5738 31.9447V31.0754V30.1948L89.4706 30.8044C87.1366 32.0915 86.3702 32.2721 83.3743 32.2608C80.8197 32.2608 80.3204 32.1705 78.6715 31.4367C76.8368 30.6125 75.5478 29.427 74.793 27.8803C74.2008 26.6835 74.0615 26.0739 74.0615 24.7078C74.0615 23.3642 74.2008 22.7433 74.7814 21.5465C75.722 19.5707 77.6728 18.1143 80.2971 17.403C81.0984 17.1885 81.5164 17.1547 83.3743 17.1547C85.2439 17.1547 85.6503 17.1772 86.4747 17.403C87.5663 17.6966 88.3675 18.0014 88.8552 18.3401C89.1803 18.5659 89.1919 18.6224 89.1803 19.2772C89.1339 20.4401 89.0874 20.3611 89.9351 20.3611H90.7015L90.6667 18.9385L90.6318 17.5046L89.5868 16.9627C87.2643 15.7547 84.3497 15.2805 81.4699 15.6305Z" fill="#F8D648"/>
<path d="M99.1435 15.5853C98.8299 15.6305 98.8183 15.6531 98.8183 16.3643V17.0869H99.8054H100.792V25.4981V33.9205L101.582 33.8866L102.36 33.8528L102.395 29.698L102.418 25.5545L108.898 25.5771L115.365 25.611L115.4 29.7657L115.424 33.9205L116.213 33.8866L116.991 33.8528V24.7077V15.5627L115.772 15.5289C115.098 15.5063 114.332 15.5289 114.077 15.5627C113.624 15.6305 113.589 15.6531 113.542 16.0369C113.519 16.2514 113.519 16.5789 113.542 16.7595L113.589 17.0869H114.506H115.424L115.4 20.553L115.365 24.0303H108.921H102.476L102.418 19.7965L102.36 15.5627L100.908 15.5515C100.107 15.5402 99.3176 15.5627 99.1435 15.5853Z" fill="#F8D648"/>
</g>
<g clip-path="url(#clip1_13_18179)">
<path d="M132.609 0.140423C131.634 0.569447 130.867 1.49524 130.867 2.24039C130.879 3.0307 131.552 3.87746 132.435 4.21616C132.632 4.29519 133.515 4.3968 134.409 4.44196C136.244 4.53228 136.824 4.71292 137.44 5.35646C137.788 5.72904 138.02 6.13548 137.881 6.13548C137.835 6.13548 137.254 6.02258 136.581 5.89839C134.839 5.55968 132.853 5.62743 131.448 6.07903C130.391 6.40644 129.335 7.00482 129.137 7.36611C128.824 7.93061 129.137 8.68705 129.787 8.93543C129.962 9.00318 130.554 9.17253 131.1 9.3193C131.936 9.53381 132.389 9.56768 134.119 9.56768C136.023 9.56768 136.209 9.5451 137.115 9.25156C137.777 9.03705 138.229 8.81124 138.543 8.52899L139.019 8.12255L139.402 8.32577C140.029 8.65318 141.074 9.62413 141.318 10.0983C141.55 10.5161 141.632 11.4531 141.481 11.8257C141.388 12.0515 141.121 12.0515 140.61 11.8483C140.157 11.6676 137.591 11.2612 136.035 11.1144C134.572 10.9677 132.423 11.058 130.484 11.3289C128.533 11.6112 128.197 11.6902 126.989 12.1531C125.514 12.7176 124.852 13.4966 125.177 14.2757C125.468 14.9531 126.583 15.4611 128.777 15.924C130.055 16.1837 135.094 16.2176 136.383 15.9692C138.38 15.5853 140.354 14.874 141.283 14.1966C141.759 13.8466 141.876 13.8579 142.34 14.2757C143.141 15.0095 143.118 14.7724 143.153 20.6094C143.176 24.8884 143.153 26.0739 143.014 26.8529C142.619 29.0206 141.295 30.8383 139.437 31.7302C138.659 32.1141 138.195 32.2496 137.033 32.4302C136.244 32.5657 135.326 32.6673 135.001 32.6673C134.258 32.6673 131.901 32.2834 131.227 32.0576C129.66 31.5157 128.115 30.0706 127.512 28.6028C126.768 26.7626 126.768 26.8077 126.722 21.7949L126.664 17.1998H125.909H125.166L125.212 22.032C125.259 27.519 125.294 27.7109 126.188 29.4496C127.709 32.3963 130.368 33.8528 134.467 33.9882C137.486 34.0898 139.646 33.5366 141.492 32.1931C142.967 31.1093 143.861 29.7431 144.419 27.7561C144.721 26.6609 144.732 26.5255 144.802 22.6304L144.86 18.6337L145.382 18.5998C146.416 18.5433 147.264 18.9498 147.67 19.7288C147.891 20.1465 147.914 21.1514 147.716 21.7384C147.531 22.2804 146.892 22.8223 146.323 22.9126C145.917 22.9804 145.87 23.0255 145.8 23.3981C145.661 24.2223 145.696 24.3126 146.114 24.3126C146.741 24.3126 147.542 24.0303 148.065 23.6239C148.634 23.1949 149.005 22.4497 149.226 21.3659C149.342 20.7223 149.342 20.5191 149.168 19.8643C148.715 18.0804 147.519 17.1998 145.557 17.1998C145.081 17.1998 144.686 17.1885 144.674 17.1659C144.674 17.1547 144.651 16.8159 144.616 16.4095C144.5 14.7837 144.198 14.0499 143.315 13.2144L142.735 12.6612L142.909 12.1418C143.257 11.0467 142.874 9.53381 142.015 8.57415C141.55 8.0548 140.447 7.23063 139.902 6.97095C139.53 6.8016 139.484 6.72257 139.425 6.2258C139.263 4.92744 138.148 3.73068 136.708 3.32424C136.221 3.18876 135.338 3.07586 134.421 3.0307C132.969 2.95167 132.899 2.94037 132.586 2.63554C132.063 2.12749 132.18 1.35976 132.888 0.727509C133.178 0.456547 133.283 0.106552 133.109 0.00494003C133.05 -0.0176392 132.83 0.0388107 132.609 0.140423ZM135.605 7.15159C137.382 7.3774 137.753 7.61449 136.836 7.93061C136.035 8.21287 130.984 8.13383 130.984 7.84029C130.984 7.64836 132.284 7.23063 133.248 7.11772C133.921 7.03869 134.769 7.04998 135.605 7.15159ZM137.022 12.6273C137.881 12.7063 138.891 12.8644 139.263 12.9547C139.634 13.0563 139.96 13.1354 139.983 13.1354C140.018 13.1354 140.041 13.1805 140.041 13.2483C140.041 13.6208 137.242 14.4563 135.083 14.7273C133.468 14.9192 130.589 14.795 128.835 14.445C127.314 14.1515 126.803 13.9934 126.803 13.8241C126.803 13.6886 127.86 13.3047 129.184 12.966C131.065 12.4805 134.258 12.3451 137.022 12.6273Z" fill="#215DB5"/>
<path d="M165.762 16.003C160.943 19.582 158.365 21.49 157.993 21.7723C157.738 21.9642 157.25 22.3255 156.89 22.5965L156.24 23.0706L156.182 19.3223L156.124 15.5627L154.962 15.5288C154.324 15.5063 153.522 15.5288 153.197 15.5627L152.582 15.6304V16.3643V17.0869H153.511H154.44L154.463 25.4642L154.498 33.8527H155.311H156.124L156.158 29.4496L156.182 25.0464L156.902 24.5384C157.296 24.2674 157.668 23.9851 157.738 23.9174C158.04 23.6464 159.201 22.8448 159.294 22.8448C159.352 22.8448 159.7 23.2174 160.06 23.6577C160.432 24.1093 160.954 24.7642 161.244 25.1029C161.721 25.69 163.857 28.298 164.891 29.5625C165.135 29.8673 165.913 30.8157 166.598 31.6511C167.294 32.4866 167.979 33.3447 168.119 33.5366C168.386 33.8979 168.421 33.9092 169.199 33.9092C169.988 33.9092 170 33.9092 170 33.6156C170 33.4463 169.861 33.1527 169.686 32.9495C169.501 32.7463 169.048 32.1931 168.665 31.7189C167.016 29.6641 166.377 28.8738 166.18 28.6593C166.075 28.5351 165.762 28.1512 165.494 27.8125C165.227 27.4738 164.798 26.9319 164.542 26.627C163.915 25.8593 163.137 24.9109 162.859 24.5497C162.742 24.3916 162.22 23.7593 161.721 23.1497C161.221 22.5287 160.78 21.9642 160.757 21.8852C160.722 21.7949 161.21 21.3545 162.011 20.7675C162.731 20.2255 163.555 19.6159 163.846 19.4014C165.901 17.8659 166.876 17.1207 167.364 16.7482L167.91 16.3191L167.318 15.8562C166.992 15.5966 166.691 15.3934 166.644 15.3934C166.609 15.3934 166.214 15.6643 165.762 16.003Z" fill="#215DB5"/>
<path d="M0.371585 15.5853L0 15.6305V16.3644V17.0869H0.987022H1.97404V25.4981V33.9205L2.76366 33.8866L3.54167 33.8528L3.5765 29.8222L3.59973 25.7803H8.68579C11.4727 25.7803 13.8764 25.7465 14.0273 25.7126C14.2596 25.6449 14.2828 25.5771 14.2828 24.9223V24.1997H8.94126H3.59973V20.6433V17.0869H8.97609C11.9255 17.0869 14.4105 17.0418 14.4918 16.9853C14.5963 16.9289 14.6311 16.6918 14.6079 16.2289L14.5731 15.5628L7.66394 15.5515C3.8668 15.5515 0.580601 15.5628 0.371585 15.5853Z" fill="#215DB5"/>
<path d="M22.5621 15.5853L22.1789 15.6305V16.3643V17.0869H23.1659H24.1529V25.498V33.9092H30.1215C33.3961 33.9092 36.2526 33.8753 36.45 33.8414C36.81 33.7737 36.81 33.7624 36.81 33.0511V32.3286H31.2943H25.7786V28.8851V25.4416L31.0969 25.419L36.4036 25.3851L36.4384 24.6851L36.4733 23.9739L31.1549 23.9513L25.8366 23.9174L25.8018 20.4965L25.7786 17.0869H31.1433C34.1044 17.0869 36.5894 17.0417 36.6707 16.9853C36.7752 16.9288 36.81 16.6917 36.7868 16.2288L36.7519 15.5627L29.8428 15.5514C26.0457 15.5514 22.7595 15.5627 22.5621 15.5853Z" fill="#215DB5"/>
<path d="M44.741 15.5853C44.474 15.6305 44.4624 15.6869 44.4507 16.4095C44.4391 17.1095 44.4043 17.0869 45.4029 17.0869H46.3319V25.5094V33.9318L50.6051 33.8753C55.0874 33.8189 55.5634 33.7737 57.4446 33.1641C58.42 32.8479 60.1037 31.877 60.9282 31.1431C62.7165 29.5512 63.6222 27.6545 63.7267 25.2723C63.7848 23.6239 63.6338 22.5288 63.1577 21.411C61.7294 18.0804 58.6522 16.0595 54.3442 15.6192C53.2875 15.5176 45.2752 15.4837 44.741 15.5853ZM54.7738 17.2111C56.1324 17.3918 57.7233 17.945 58.7335 18.5885C60.9979 20.0224 62.1359 22.0772 62.1359 24.7078C62.1359 27.8803 60.4173 30.3077 57.3169 31.5383C55.6563 32.1931 55.4125 32.227 51.5341 32.2947L47.9576 32.3512V24.719V17.0869H50.907C52.5327 17.0869 54.2745 17.1434 54.7738 17.2111Z" fill="#215DB5"/>
<path d="M81.4701 15.6305C76.9182 16.2063 73.5971 18.8256 72.6798 22.5739C72.3663 23.8723 72.4127 26.0513 72.7959 27.3384C74.0384 31.4819 78.4626 34.0786 83.9551 33.8754C86.3355 33.785 87.9264 33.3899 89.6101 32.4754L90.5739 31.9447V31.0754V30.1948L89.4708 30.8044C87.1368 32.0915 86.3704 32.2722 83.3745 32.2609C80.8198 32.2609 80.3205 32.1705 78.6716 31.4367C76.8369 30.6125 75.548 29.427 74.7932 27.8803C74.201 26.6835 74.0616 26.0739 74.0616 24.7078C74.0616 23.3642 74.201 22.7433 74.7816 21.5465C75.7221 19.5708 77.673 18.1143 80.2973 17.4031C81.0985 17.1885 81.5165 17.1547 83.3745 17.1547C85.244 17.1547 85.6504 17.1773 86.4749 17.4031C87.5664 17.6966 88.3676 18.0014 88.8553 18.3401C89.1805 18.5659 89.1921 18.6224 89.1805 19.2772C89.134 20.4401 89.0876 20.3611 89.9353 20.3611H90.7016L90.6668 18.9385L90.632 17.5047L89.5869 16.9627C87.2645 15.7547 84.3499 15.2805 81.4701 15.6305Z" fill="#215DB5"/>
<path d="M99.1435 15.5853C98.8299 15.6305 98.8183 15.6531 98.8183 16.3644V17.0869H99.8053H100.792V25.4981V33.9205L101.582 33.8866L102.36 33.8528L102.395 29.698L102.418 25.5545L108.898 25.5771L115.365 25.611L115.4 29.7657L115.424 33.9205L116.213 33.8866L116.991 33.8528V24.7078V15.5628L115.772 15.5289C115.098 15.5063 114.332 15.5289 114.077 15.5628C113.624 15.6305 113.589 15.6531 113.542 16.037C113.519 16.2515 113.519 16.5789 113.542 16.7595L113.589 17.0869H114.506H115.424L115.4 20.553L115.365 24.0304H108.921H102.476L102.418 19.7966L102.36 15.5628L100.908 15.5515C100.107 15.5402 99.3176 15.5628 99.1435 15.5853Z" fill="#215DB5"/>
</g>
<defs>
<clipPath id="clip0_13_18179">
<rect width="170" height="11.3333" fill="white" transform="matrix(1 0 0 -1 0 34)"/>
</clipPath>
<clipPath id="clip1_13_18179">
<rect width="170" height="22.6667" fill="white" transform="matrix(1 0 0 -1 0 22.6667)"/>
</clipPath>
</defs>
</svg>
