<svg width="24" height="24" viewBox="0 0 24 24" fill="none" xmlns="http://www.w3.org/2000/svg">
<path d="M19.5 7.66667H16.125V5.07407C16.125 3.99356 15.6904 2.95731 14.9168 2.19327C14.1432 1.42923 13.094 1 12 1C10.906 1 9.85677 1.42923 9.08318 2.19327C8.3096 2.95731 7.875 3.99356 7.875 5.07407V7.66667H4.5C4.10218 7.66667 3.72064 7.82275 3.43934 8.10058C3.15804 8.37841 3 8.75523 3 9.14815V19.5185C3 19.9114 3.15804 20.2883 3.43934 20.5661C3.72064 20.8439 4.10218 21 4.5 21H19.5C19.8978 21 20.2794 20.8439 20.5607 20.5661C20.842 20.2883 21 19.9114 21 19.5185V9.14815C21 8.75523 20.842 8.37841 20.5607 8.10058C20.2794 7.82275 19.8978 7.66667 19.5 7.66667ZM9.375 5.07407C9.375 4.38648 9.65156 3.72704 10.1438 3.24083C10.6361 2.75463 11.3038 2.48148 12 2.48148C12.6962 2.48148 13.3639 2.75463 13.8562 3.24083C14.3484 3.72704 14.625 4.38648 14.625 5.07407V7.66667H9.375V5.07407ZM19.5 19.5185H4.5V9.14815H19.5V19.5185ZM13.125 14.3333C13.125 14.5531 13.059 14.7679 12.9354 14.9506C12.8118 15.1334 12.6361 15.2758 12.4305 15.3599C12.225 15.444 11.9988 15.466 11.7805 15.4231C11.5623 15.3802 11.3618 15.2744 11.2045 15.119C11.0472 14.9636 10.94 14.7656 10.8966 14.5501C10.8532 14.3346 10.8755 14.1112 10.9606 13.9081C11.0458 13.7051 11.19 13.5316 11.375 13.4095C11.56 13.2874 11.7775 13.2222 12 13.2222C12.2984 13.2222 12.5845 13.3393 12.7955 13.5477C13.0065 13.756 13.125 14.0386 13.125 14.3333Z" fill="white"/>
</svg>
